<svg xmlns="http://www.w3.org/2000/svg" version="1.1" xmlns:xlink="http://www.w3.org/1999/xlink" xmlns:svgjs="http://svgjs.dev/svgjs" width="1440" height="560" preserveAspectRatio="none" viewBox="0 0 1440 560"><g mask="url(&quot;#SvgjsMask1000&quot;)" fill="none"><rect width="1440" height="560" x="0" y="0" fill="#0e2a47"></rect><path d="M194.06 175.25L259.01 212.75L259.01 287.75L194.06 325.25L129.1 287.75L129.1 212.75zM259.01 512.75L323.97 550.25L323.97 625.25L259.01 662.75L194.06 625.25L194.06 550.25zM323.97 -49.75L388.92 -12.25L388.92 62.75L323.97 100.25L259.01 62.75L259.01 -12.25zM323.97 175.25L388.92 212.75L388.92 287.75L323.97 325.25L259.01 287.75L259.01 212.75zM518.83 512.75L583.78 550.25L583.78 625.25L518.83 662.75L453.87 625.25L453.87 550.25zM843.59 400.25L908.55 437.75L908.55 512.75L843.59 550.25L778.64 512.75L778.64 437.75zM973.5 175.25L1038.46 212.75L1038.46 287.75L973.5 325.25L908.55 287.75L908.55 212.75zM973.5 400.25L1038.46 437.75L1038.46 512.75L973.5 550.25L908.55 512.75L908.55 437.75zM1103.41 -49.75L1168.36 -12.25L1168.36 62.75L1103.41 100.25L1038.46 62.75L1038.46 -12.25zM1168.36 62.75L1233.32 100.25L1233.32 175.25L1168.36 212.75L1103.41 175.25L1103.41 100.25zM1233.32 400.25L1298.27 437.75L1298.27 512.75L1233.32 550.25L1168.36 512.75L1168.36 437.75zM1363.23 -49.75L1428.18 -12.25L1428.18 62.75L1363.23 100.25L1298.27 62.75L1298.27 -12.25zM1428.18 287.75L1493.13 325.25L1493.13 400.25L1428.18 437.75L1363.23 400.25L1363.23 325.25zM1363.23 400.25L1428.18 437.75L1428.18 512.75L1363.23 550.25L1298.27 512.75L1298.27 437.75zM1493.13 -49.75L1558.09 -12.25L1558.09 62.75L1493.13 100.25L1428.18 62.75L1428.18 -12.25zM1558.09 62.75L1623.04 100.25L1623.04 175.25L1558.09 212.75L1493.13 175.25L1493.13 100.25z" stroke="#03305d" stroke-width="2"></path><path d="M186.56 175.25 a7.5 7.5 0 1 0 15 0 a7.5 7.5 0 1 0 -15 0zM251.51 212.75 a7.5 7.5 0 1 0 15 0 a7.5 7.5 0 1 0 -15 0zM251.51 287.75 a7.5 7.5 0 1 0 15 0 a7.5 7.5 0 1 0 -15 0zM186.56 325.25 a7.5 7.5 0 1 0 15 0 a7.5 7.5 0 1 0 -15 0zM121.6 287.75 a7.5 7.5 0 1 0 15 0 a7.5 7.5 0 1 0 -15 0zM121.6 212.75 a7.5 7.5 0 1 0 15 0 a7.5 7.5 0 1 0 -15 0zM251.51 512.75 a7.5 7.5 0 1 0 15 0 a7.5 7.5 0 1 0 -15 0zM316.47 550.25 a7.5 7.5 0 1 0 15 0 a7.5 7.5 0 1 0 -15 0zM316.47 625.25 a7.5 7.5 0 1 0 15 0 a7.5 7.5 0 1 0 -15 0zM251.51 662.75 a7.5 7.5 0 1 0 15 0 a7.5 7.5 0 1 0 -15 0zM186.56 625.25 a7.5 7.5 0 1 0 15 0 a7.5 7.5 0 1 0 -15 0zM186.56 550.25 a7.5 7.5 0 1 0 15 0 a7.5 7.5 0 1 0 -15 0zM316.47 -49.75 a7.5 7.5 0 1 0 15 0 a7.5 7.5 0 1 0 -15 0zM381.42 -12.25 a7.5 7.5 0 1 0 15 0 a7.5 7.5 0 1 0 -15 0zM381.42 62.75 a7.5 7.5 0 1 0 15 0 a7.5 7.5 0 1 0 -15 0zM316.47 100.25 a7.5 7.5 0 1 0 15 0 a7.5 7.5 0 1 0 -15 0zM251.51 62.75 a7.5 7.5 0 1 0 15 0 a7.5 7.5 0 1 0 -15 0zM251.51 -12.25 a7.5 7.5 0 1 0 15 0 a7.5 7.5 0 1 0 -15 0zM316.47 175.25 a7.5 7.5 0 1 0 15 0 a7.5 7.5 0 1 0 -15 0zM381.42 212.75 a7.5 7.5 0 1 0 15 0 a7.5 7.5 0 1 0 -15 0zM381.42 287.75 a7.5 7.5 0 1 0 15 0 a7.5 7.5 0 1 0 -15 0zM316.47 325.25 a7.5 7.5 0 1 0 15 0 a7.5 7.5 0 1 0 -15 0zM511.33 512.75 a7.5 7.5 0 1 0 15 0 a7.5 7.5 0 1 0 -15 0zM576.28 550.25 a7.5 7.5 0 1 0 15 0 a7.5 7.5 0 1 0 -15 0zM576.28 625.25 a7.5 7.5 0 1 0 15 0 a7.5 7.5 0 1 0 -15 0zM511.33 662.75 a7.5 7.5 0 1 0 15 0 a7.5 7.5 0 1 0 -15 0zM446.37 625.25 a7.5 7.5 0 1 0 15 0 a7.5 7.5 0 1 0 -15 0zM446.37 550.25 a7.5 7.5 0 1 0 15 0 a7.5 7.5 0 1 0 -15 0zM836.09 400.25 a7.5 7.5 0 1 0 15 0 a7.5 7.5 0 1 0 -15 0zM901.05 437.75 a7.5 7.5 0 1 0 15 0 a7.5 7.5 0 1 0 -15 0zM901.05 512.75 a7.5 7.5 0 1 0 15 0 a7.5 7.5 0 1 0 -15 0zM836.09 550.25 a7.5 7.5 0 1 0 15 0 a7.5 7.5 0 1 0 -15 0zM771.14 512.75 a7.5 7.5 0 1 0 15 0 a7.5 7.5 0 1 0 -15 0zM771.14 437.75 a7.5 7.5 0 1 0 15 0 a7.5 7.5 0 1 0 -15 0zM966 175.25 a7.5 7.5 0 1 0 15 0 a7.5 7.5 0 1 0 -15 0zM1030.96 212.75 a7.5 7.5 0 1 0 15 0 a7.5 7.5 0 1 0 -15 0zM1030.96 287.75 a7.5 7.5 0 1 0 15 0 a7.5 7.5 0 1 0 -15 0zM966 325.25 a7.5 7.5 0 1 0 15 0 a7.5 7.5 0 1 0 -15 0zM901.05 287.75 a7.5 7.5 0 1 0 15 0 a7.5 7.5 0 1 0 -15 0zM901.05 212.75 a7.5 7.5 0 1 0 15 0 a7.5 7.5 0 1 0 -15 0zM966 400.25 a7.5 7.5 0 1 0 15 0 a7.5 7.5 0 1 0 -15 0zM1030.96 437.75 a7.5 7.5 0 1 0 15 0 a7.5 7.5 0 1 0 -15 0zM1030.96 512.75 a7.5 7.5 0 1 0 15 0 a7.5 7.5 0 1 0 -15 0zM966 550.25 a7.5 7.5 0 1 0 15 0 a7.5 7.5 0 1 0 -15 0zM1095.91 -49.75 a7.5 7.5 0 1 0 15 0 a7.5 7.5 0 1 0 -15 0zM1160.86 -12.25 a7.5 7.5 0 1 0 15 0 a7.5 7.5 0 1 0 -15 0zM1160.86 62.75 a7.5 7.5 0 1 0 15 0 a7.5 7.5 0 1 0 -15 0zM1095.91 100.25 a7.5 7.5 0 1 0 15 0 a7.5 7.5 0 1 0 -15 0zM1030.96 62.75 a7.5 7.5 0 1 0 15 0 a7.5 7.5 0 1 0 -15 0zM1030.96 -12.25 a7.5 7.5 0 1 0 15 0 a7.5 7.5 0 1 0 -15 0zM1225.82 100.25 a7.5 7.5 0 1 0 15 0 a7.5 7.5 0 1 0 -15 0zM1225.82 175.25 a7.5 7.5 0 1 0 15 0 a7.5 7.5 0 1 0 -15 0zM1160.86 212.75 a7.5 7.5 0 1 0 15 0 a7.5 7.5 0 1 0 -15 0zM1095.91 175.25 a7.5 7.5 0 1 0 15 0 a7.5 7.5 0 1 0 -15 0zM1225.82 400.25 a7.5 7.5 0 1 0 15 0 a7.5 7.5 0 1 0 -15 0zM1290.77 437.75 a7.5 7.5 0 1 0 15 0 a7.5 7.5 0 1 0 -15 0zM1290.77 512.75 a7.5 7.5 0 1 0 15 0 a7.5 7.5 0 1 0 -15 0zM1225.82 550.25 a7.5 7.5 0 1 0 15 0 a7.5 7.5 0 1 0 -15 0zM1160.86 512.75 a7.5 7.5 0 1 0 15 0 a7.5 7.5 0 1 0 -15 0zM1160.86 437.75 a7.5 7.5 0 1 0 15 0 a7.5 7.5 0 1 0 -15 0zM1355.73 -49.75 a7.5 7.5 0 1 0 15 0 a7.5 7.5 0 1 0 -15 0zM1420.68 -12.25 a7.5 7.5 0 1 0 15 0 a7.5 7.5 0 1 0 -15 0zM1420.68 62.75 a7.5 7.5 0 1 0 15 0 a7.5 7.5 0 1 0 -15 0zM1355.73 100.25 a7.5 7.5 0 1 0 15 0 a7.5 7.5 0 1 0 -15 0zM1290.77 62.75 a7.5 7.5 0 1 0 15 0 a7.5 7.5 0 1 0 -15 0zM1290.77 -12.25 a7.5 7.5 0 1 0 15 0 a7.5 7.5 0 1 0 -15 0zM1420.68 287.75 a7.5 7.5 0 1 0 15 0 a7.5 7.5 0 1 0 -15 0zM1485.63 325.25 a7.5 7.5 0 1 0 15 0 a7.5 7.5 0 1 0 -15 0zM1485.63 400.25 a7.5 7.5 0 1 0 15 0 a7.5 7.5 0 1 0 -15 0zM1420.68 437.75 a7.5 7.5 0 1 0 15 0 a7.5 7.5 0 1 0 -15 0zM1355.73 400.25 a7.5 7.5 0 1 0 15 0 a7.5 7.5 0 1 0 -15 0zM1355.73 325.25 a7.5 7.5 0 1 0 15 0 a7.5 7.5 0 1 0 -15 0zM1420.68 512.75 a7.5 7.5 0 1 0 15 0 a7.5 7.5 0 1 0 -15 0zM1355.73 550.25 a7.5 7.5 0 1 0 15 0 a7.5 7.5 0 1 0 -15 0zM1485.63 -49.75 a7.5 7.5 0 1 0 15 0 a7.5 7.5 0 1 0 -15 0zM1550.59 -12.25 a7.5 7.5 0 1 0 15 0 a7.5 7.5 0 1 0 -15 0zM1550.59 62.75 a7.5 7.5 0 1 0 15 0 a7.5 7.5 0 1 0 -15 0zM1485.63 100.25 a7.5 7.5 0 1 0 15 0 a7.5 7.5 0 1 0 -15 0zM1615.54 100.25 a7.5 7.5 0 1 0 15 0 a7.5 7.5 0 1 0 -15 0zM1615.54 175.25 a7.5 7.5 0 1 0 15 0 a7.5 7.5 0 1 0 -15 0zM1550.59 212.75 a7.5 7.5 0 1 0 15 0 a7.5 7.5 0 1 0 -15 0zM1485.63 175.25 a7.5 7.5 0 1 0 15 0 a7.5 7.5 0 1 0 -15 0z" fill="#03305d"></path><path d="M3.16 135.79L46.46 160.79L46.46 210.79L3.16 235.79L-40.14 210.79L-40.14 160.79zM3.16 435.79L46.46 460.79L46.46 510.79L3.16 535.79L-40.14 510.79L-40.14 460.79zM133.07 210.79L176.37 235.79L176.37 285.79L133.07 310.79L89.77 285.79L89.77 235.79zM89.77 435.79L133.07 460.79L133.07 510.79L89.77 535.79L46.46 510.79L46.46 460.79zM176.37 -14.21L219.67 10.79L219.67 60.79L176.37 85.79L133.07 60.79L133.07 10.79zM219.67 60.79L262.98 85.79L262.98 135.79L219.67 160.79L176.37 135.79L176.37 85.79zM219.67 210.79L262.98 235.79L262.98 285.79L219.67 310.79L176.37 285.79L176.37 235.79zM306.28 60.79L349.58 85.79L349.58 135.79L306.28 160.79L262.98 135.79L262.98 85.79zM262.98 285.79L306.28 310.79L306.28 360.79L262.98 385.79L219.67 360.79L219.67 310.79zM306.28 360.79L349.58 385.79L349.58 435.79L306.28 460.79L262.98 435.79L262.98 385.79zM262.98 435.79L306.28 460.79L306.28 510.79L262.98 535.79L219.67 510.79L219.67 460.79zM306.28 510.79L349.58 535.79L349.58 585.79L306.28 610.79L262.98 585.79L262.98 535.79zM349.58 -14.21L392.88 10.79L392.88 60.79L349.58 85.79L306.28 60.79L306.28 10.79zM392.88 360.79L436.19 385.79L436.19 435.79L392.88 460.79L349.58 435.79L349.58 385.79zM392.88 510.79L436.19 535.79L436.19 585.79L392.88 610.79L349.58 585.79L349.58 535.79zM436.19 -14.21L479.49 10.79L479.49 60.79L436.19 85.79L392.88 60.79L392.88 10.79zM436.19 285.79L479.49 310.79L479.49 360.79L436.19 385.79L392.88 360.79L392.88 310.79zM479.49 360.79L522.79 385.79L522.79 435.79L479.49 460.79L436.19 435.79L436.19 385.79zM479.49 510.79L522.79 535.79L522.79 585.79L479.49 610.79L436.19 585.79L436.19 535.79zM522.79 -14.21L566.09 10.79L566.09 60.79L522.79 85.79L479.49 60.79L479.49 10.79zM566.09 510.79L609.39 535.79L609.39 585.79L566.09 610.79L522.79 585.79L522.79 535.79zM609.39 285.79L652.7 310.79L652.7 360.79L609.39 385.79L566.09 360.79L566.09 310.79zM652.7 360.79L696 385.79L696 435.79L652.7 460.79L609.39 435.79L609.39 385.79zM652.7 510.79L696 535.79L696 585.79L652.7 610.79L609.39 585.79L609.39 535.79zM739.3 60.79L782.61 85.79L782.61 135.79L739.3 160.79L696 135.79L696 85.79zM696 285.79L739.3 310.79L739.3 360.79L696 385.79L652.7 360.79L652.7 310.79zM739.3 510.79L782.61 535.79L782.61 585.79L739.3 610.79L696 585.79L696 535.79zM782.61 285.79L825.91 310.79L825.91 360.79L782.61 385.79L739.3 360.79L739.3 310.79zM869.21 285.79L912.51 310.79L912.51 360.79L869.21 385.79L825.91 360.79L825.91 310.79zM869.21 435.79L912.51 460.79L912.51 510.79L869.21 535.79L825.91 510.79L825.91 460.79zM955.82 -14.21L999.12 10.79L999.12 60.79L955.82 85.79L912.51 60.79L912.51 10.79zM1085.72 210.79L1129.03 235.79L1129.03 285.79L1085.72 310.79L1042.42 285.79L1042.42 235.79zM1129.03 -14.21L1172.33 10.79L1172.33 60.79L1129.03 85.79L1085.72 60.79L1085.72 10.79zM1215.63 285.79L1258.93 310.79L1258.93 360.79L1215.63 385.79L1172.33 360.79L1172.33 310.79zM1215.63 435.79L1258.93 460.79L1258.93 510.79L1215.63 535.79L1172.33 510.79L1172.33 460.79zM1302.24 -14.21L1345.54 10.79L1345.54 60.79L1302.24 85.79L1258.93 60.79L1258.93 10.79zM1345.54 60.79L1388.84 85.79L1388.84 135.79L1345.54 160.79L1302.24 135.79L1302.24 85.79zM1345.54 510.79L1388.84 535.79L1388.84 585.79L1345.54 610.79L1302.24 585.79L1302.24 535.79zM1388.84 -14.21L1432.14 10.79L1432.14 60.79L1388.84 85.79L1345.54 60.79L1345.54 10.79zM1432.14 60.79L1475.45 85.79L1475.45 135.79L1432.14 160.79L1388.84 135.79L1388.84 85.79zM1388.84 435.79L1432.14 460.79L1432.14 510.79L1388.84 535.79L1345.54 510.79L1345.54 460.79zM1432.14 510.79L1475.45 535.79L1475.45 585.79L1432.14 610.79L1388.84 585.79L1388.84 535.79z" stroke="rgba(6, 80, 156, 0.93)" stroke-width="2"></path></g><defs><mask id="SvgjsMask1000"><rect width="1440" height="560" fill="#ffffff"></rect></mask></defs></svg>